<svg xmlns="http://www.w3.org/2000/svg" xmlns:xlink="http://www.w3.org/1999/xlink" viewBox="0 0 623 346" width="623" height="346"><path d="M 59.000,311.469 C 63.000,308.469 62.982,308.445 67.000,305.469" stroke-width="4.805" stroke="black" fill="none" stroke-linecap="round"></path><path d="M 67.000,305.469 C 76.482,298.445 76.741,298.779 86.000,291.469" stroke-width="2.699" stroke="black" fill="none" stroke-linecap="round"></path><path d="M 86.000,291.469 C 105.241,276.279 105.503,276.553 124.000,260.469" stroke-width="1.621" stroke="black" fill="none" stroke-linecap="round"></path><path d="M 124.000,260.469 C 151.503,236.553 152.878,237.775 178.000,211.469" stroke-width="1.186" stroke="black" fill="none" stroke-linecap="round"></path><path d="M 178.000,211.469 C 205.878,182.275 204.901,181.185 230.000,149.469" stroke-width="1.125" stroke="black" fill="none" stroke-linecap="round"></path><path d="M 230.000,149.469 C 259.901,111.685 258.545,110.609 288.000,72.469" stroke-width="1.125" stroke="black" fill="none" stroke-linecap="round"></path><path d="M 288.000,72.469 C 297.545,60.109 298.540,60.865 308.000,48.469" stroke-width="1.421" stroke="black" fill="none" stroke-linecap="round"></path><path d="M 308.000,48.469 C 313.040,41.865 312.532,41.489 317.000,34.469" stroke-width="2.186" stroke="black" fill="none" stroke-linecap="round"></path><path d="M 317.000,34.469 C 319.532,30.489 323.769,28.828 322.000,26.469" stroke-width="2.985" stroke="black" fill="none" stroke-linecap="round"></path><path d="M 322.000,26.469 C 319.269,22.828 314.951,21.542 308.000,22.469" stroke-width="3.829" stroke="black" fill="none" stroke-linecap="round"></path><path d="M 308.000,22.469 C 292.451,24.542 292.349,27.051 277.000,32.469" stroke-width="2.266" stroke="black" fill="none" stroke-linecap="round"></path><path d="M 277.000,32.469 C 266.849,36.051 266.773,35.978 257.000,40.469" stroke-width="2.357" stroke="black" fill="none" stroke-linecap="round"></path><path d="M 257.000,40.469 C 248.273,44.478 247.824,43.971 240.000,49.469" stroke-width="2.547" stroke="black" fill="none" stroke-linecap="round"></path><path d="M 240.000,49.469 C 229.324,56.971 229.401,57.371 220.000,66.469" stroke-width="2.302" stroke="black" fill="none" stroke-linecap="round"></path><path d="M 220.000,66.469 C 213.901,72.371 213.010,72.117 209.000,79.469" stroke-width="2.583" stroke="black" fill="none" stroke-linecap="round"></path><path d="M 209.000,79.469 C 204.010,88.617 204.218,89.212 202.000,99.469" stroke-width="2.583" stroke="black" fill="none" stroke-linecap="round"></path><path d="M 202.000,99.469 C 200.218,107.712 200.503,108.027 201.000,116.469" stroke-width="2.681" stroke="black" fill="none" stroke-linecap="round"></path><path d="M 201.000,116.469 C 201.503,125.027 201.545,125.226 204.000,133.469" stroke-width="2.757" stroke="black" fill="none" stroke-linecap="round"></path><path d="M 204.000,133.469 C 208.545,148.726 209.211,148.582 215.000,163.469" stroke-width="2.141" stroke="black" fill="none" stroke-linecap="round"></path><path d="M 215.000,163.469 C 219.711,175.582 220.021,175.460 225.000,187.469" stroke-width="2.142" stroke="black" fill="none" stroke-linecap="round"></path><path d="M 225.000,187.469 C 228.521,195.960 229.172,195.748 232.000,204.469" stroke-width="2.454" stroke="black" fill="none" stroke-linecap="round"></path><path d="M 232.000,204.469 C 235.172,214.248 235.357,214.338 237.000,224.469" stroke-width="2.515" stroke="black" fill="none" stroke-linecap="round"></path><path d="M 237.000,224.469 C 238.357,232.838 238.445,233.008 238.000,241.469" stroke-width="2.715" stroke="black" fill="none" stroke-linecap="round"></path><path d="M 238.000,241.469 C 237.445,252.008 237.757,252.361 235.000,262.469" stroke-width="2.500" stroke="black" fill="none" stroke-linecap="round"></path><path d="M 235.000,262.469 C 233.257,268.861 232.895,269.114 229.000,274.469" stroke-width="2.919" stroke="black" fill="none" stroke-linecap="round"></path><path d="M 229.000,274.469 C 224.895,280.114 224.677,280.495 219.000,284.469" stroke-width="3.023" stroke="black" fill="none" stroke-linecap="round"></path><path d="M 219.000,284.469 C 214.677,287.495 214.173,287.175 209.000,288.469" stroke-width="3.306" stroke="black" fill="none" stroke-linecap="round"></path><path d="M 209.000,288.469 C 204.173,289.675 203.949,289.881 199.000,289.469" stroke-width="3.409" stroke="black" fill="none" stroke-linecap="round"></path><path d="M 199.000,289.469 C 191.949,288.881 191.631,288.880 185.000,286.469" stroke-width="3.152" stroke="black" fill="none" stroke-linecap="round"></path><path d="M 185.000,286.469 C 180.631,284.880 180.669,284.404 177.000,281.469" stroke-width="3.464" stroke="black" fill="none" stroke-linecap="round"></path><path d="M 177.000,281.469 C 170.669,276.404 169.316,277.201 165.000,270.469" stroke-width="3.028" stroke="black" fill="none" stroke-linecap="round"></path><path d="M 165.000,270.469 C 156.816,257.701 157.564,256.817 152.000,242.469" stroke-width="2.157" stroke="black" fill="none" stroke-linecap="round"></path><path d="M 152.000,242.469 C 148.064,232.317 148.393,232.103 146.000,221.469" stroke-width="2.362" stroke="black" fill="none" stroke-linecap="round"></path><path d="M 146.000,221.469 C 143.893,212.103 143.245,212.004 143.000,202.469" stroke-width="2.493" stroke="black" fill="none" stroke-linecap="round"></path><path d="M 143.000,202.469 C 142.745,192.504 142.814,192.149 145.000,182.469" stroke-width="2.552" stroke="black" fill="none" stroke-linecap="round"></path><path d="M 145.000,182.469 C 146.314,176.649 147.072,176.739 150.000,171.469" stroke-width="3.026" stroke="black" fill="none" stroke-linecap="round"></path><path d="M 150.000,171.469 C 154.572,163.239 154.774,163.308 160.000,155.469" stroke-width="2.700" stroke="black" fill="none" stroke-linecap="round"></path><path d="M 160.000,155.469 C 161.774,152.808 161.488,150.925 164.000,150.469" stroke-width="3.541" stroke="black" fill="none" stroke-linecap="round"></path><path d="M 164.000,150.469 C 166.988,149.925 168.618,150.746 171.000,153.469" stroke-width="4.384" stroke="black" fill="none" stroke-linecap="round"></path><path d="M 171.000,153.469 C 175.618,158.746 174.700,159.868 178.000,166.469" stroke-width="3.323" stroke="black" fill="none" stroke-linecap="round"></path><path d="M 178.000,166.469 C 182.200,174.868 181.979,174.979 186.000,183.469" stroke-width="2.771" stroke="black" fill="none" stroke-linecap="round"></path><path d="M 186.000,183.469 C 190.979,193.979 190.892,194.021 196.000,204.469" stroke-width="2.482" stroke="black" fill="none" stroke-linecap="round"></path><path d="M 196.000,204.469 C 201.892,216.521 201.280,216.882 208.000,228.469" stroke-width="2.264" stroke="black" fill="none" stroke-linecap="round"></path><path d="M 208.000,228.469 C 215.780,241.882 215.671,242.142 225.000,254.469" stroke-width="2.065" stroke="black" fill="none" stroke-linecap="round"></path><path d="M 225.000,254.469 C 229.671,260.642 230.101,260.455 236.000,265.469" stroke-width="2.607" stroke="black" fill="none" stroke-linecap="round"></path><path d="M 236.000,265.469 C 240.101,268.955 240.177,270.334 245.000,271.469" stroke-width="3.138" stroke="black" fill="none" stroke-linecap="round"></path><path d="M 245.000,271.469 C 248.677,272.334 250.363,272.105 253.000,269.469" stroke-width="3.966" stroke="black" fill="none" stroke-linecap="round"></path><path d="M 253.000,269.469 C 256.863,265.605 256.831,264.315 258.000,258.469" stroke-width="4.071" stroke="black" fill="none" stroke-linecap="round"></path><path d="M 258.000,258.469 C 260.331,246.815 259.428,246.487 260.000,234.469" stroke-width="2.671" stroke="black" fill="none" stroke-linecap="round"></path><path d="M 260.000,234.469 C 260.428,225.487 260.264,225.460 260.000,216.469" stroke-width="2.713" stroke="black" fill="none" stroke-linecap="round"></path><path d="M 260.000,216.469 C 259.764,208.460 259.853,208.428 259.000,200.469" stroke-width="2.780" stroke="black" fill="none" stroke-linecap="round"></path><path d="M 259.000,200.469 C 258.353,194.428 257.709,194.493 257.000,188.469" stroke-width="3.111" stroke="black" fill="none" stroke-linecap="round"></path><path d="M 257.000,188.469 C 256.709,185.993 257.407,183.062 257.000,183.469" stroke-width="3.850" stroke="black" fill="none" stroke-linecap="round"></path><path d="M 257.000,183.469 C 256.407,184.062 255.288,186.869 255.000,190.469" stroke-width="4.632" stroke="black" fill="none" stroke-linecap="round"></path><path d="M 255.000,190.469 C 254.288,199.369 255.000,199.469 255.000,208.469" stroke-width="3.115" stroke="black" fill="none" stroke-linecap="round"></path><path d="M 255.000,208.469 C 255.000,217.969 254.694,217.981 255.000,227.469" stroke-width="2.779" stroke="black" fill="none" stroke-linecap="round"></path><path d="M 255.000,227.469 C 255.194,233.481 254.716,233.689 256.000,239.469" stroke-width="3.067" stroke="black" fill="none" stroke-linecap="round"></path><path d="M 256.000,239.469 C 256.716,242.689 256.831,243.059 259.000,245.469" stroke-width="3.685" stroke="black" fill="none" stroke-linecap="round"></path><path d="M 259.000,245.469 C 261.331,248.059 262.036,249.697 265.000,249.469" stroke-width="3.866" stroke="black" fill="none" stroke-linecap="round"></path><path d="M 265.000,249.469 C 268.536,249.197 269.138,247.569 272.000,244.469" stroke-width="4.265" stroke="black" fill="none" stroke-linecap="round"></path><path d="M 272.000,244.469 C 275.138,241.069 274.712,240.588 277.000,236.469" stroke-width="3.729" stroke="black" fill="none" stroke-linecap="round"></path><path d="M 277.000,236.469 C 279.712,231.588 280.342,231.718 282.000,226.469" stroke-width="3.596" stroke="black" fill="none" stroke-linecap="round"></path><path d="M 282.000,226.469 C 283.342,222.218 282.590,221.977 283.000,217.469" stroke-width="3.593" stroke="black" fill="none" stroke-linecap="round"></path><path d="M 283.000,217.469 C 283.590,210.977 284.000,210.939 284.000,204.469" stroke-width="3.233" stroke="black" fill="none" stroke-linecap="round"></path><path d="M 284.000,204.469 C 284.000,201.939 283.500,199.469 283.000,199.469" stroke-width="4.239" stroke="black" fill="none" stroke-linecap="round"></path><path d="M 283.000,199.469 C 282.500,199.469 282.149,201.934 282.000,204.469" stroke-width="4.663" stroke="black" fill="none" stroke-linecap="round"></path><path d="M 282.000,204.469 C 281.649,210.434 281.523,210.505 282.000,216.469" stroke-width="3.615" stroke="black" fill="none" stroke-linecap="round"></path><path d="M 282.000,216.469 C 282.523,223.005 283.185,222.946 284.000,229.469" stroke-width="3.159" stroke="black" fill="none" stroke-linecap="round"></path><path d="M 284.000,229.469 C 284.685,234.946 283.487,235.326 285.000,240.469" stroke-width="3.330" stroke="black" fill="none" stroke-linecap="round"></path><path d="M 285.000,240.469 C 285.987,243.826 287.000,246.469 289.000,246.469" stroke-width="3.741" stroke="black" fill="none" stroke-linecap="round"></path><path d="M 289.000,246.469 C 291.000,246.469 291.570,243.737 293.000,240.469" stroke-width="4.313" stroke="black" fill="none" stroke-linecap="round"></path><path d="M 293.000,240.469 C 295.070,235.737 294.643,235.508 296.000,230.469" stroke-width="3.698" stroke="black" fill="none" stroke-linecap="round"></path><path d="M 296.000,230.469 C 298.143,222.508 298.732,222.582 300.000,214.469" stroke-width="3.065" stroke="black" fill="none" stroke-linecap="round"></path><path d="M 300.000,214.469 C 301.232,206.582 300.703,206.475 301.000,198.469" stroke-width="2.944" stroke="black" fill="none" stroke-linecap="round"></path><path d="M 301.000,198.469 C 301.203,192.975 301.289,188.334 301.000,187.469" stroke-width="3.206" stroke="black" fill="none" stroke-linecap="round"></path><path d="M 301.000,187.469 C 300.789,186.834 300.000,191.460 300.000,195.469" stroke-width="4.292" stroke="black" fill="none" stroke-linecap="round"></path><path d="M 300.000,195.469 C 300.000,200.960 300.096,201.044 301.000,206.469" stroke-width="3.634" stroke="black" fill="none" stroke-linecap="round"></path><path d="M 301.000,206.469 C 301.596,210.044 301.612,210.137 303.000,213.469" stroke-width="3.793" stroke="black" fill="none" stroke-linecap="round"></path><path d="M 303.000,213.469 C 304.112,216.137 303.866,217.402 306.000,218.469" stroke-width="4.061" stroke="black" fill="none" stroke-linecap="round"></path><path d="M 306.000,218.469 C 307.866,219.402 308.728,218.479 311.000,217.469" stroke-width="4.202" stroke="black" fill="none" stroke-linecap="round"></path><path d="M 311.000,217.469 C 313.228,216.479 313.529,216.430 315.000,214.469" stroke-width="4.302" stroke="black" fill="none" stroke-linecap="round"></path><path d="M 315.000,214.469 C 318.029,210.430 317.700,210.069 320.000,205.469" stroke-width="3.710" stroke="black" fill="none" stroke-linecap="round"></path><path d="M 320.000,205.469 C 322.700,200.069 322.920,200.115 325.000,194.469" stroke-width="3.404" stroke="black" fill="none" stroke-linecap="round"></path><path d="M 325.000,194.469 C 326.420,190.615 325.868,187.035 327.000,186.469" stroke-width="3.614" stroke="black" fill="none" stroke-linecap="round"></path><path d="M 327.000,186.469 C 327.868,186.035 328.521,189.357 329.000,192.469" stroke-width="4.562" stroke="black" fill="none" stroke-linecap="round"></path><path d="M 329.000,192.469 C 330.521,202.357 330.472,202.445 331.000,212.469" stroke-width="2.964" stroke="black" fill="none" stroke-linecap="round"></path><path d="M 331.000,212.469 C 331.472,221.445 330.728,221.478 331.000,230.469" stroke-width="2.798" stroke="black" fill="none" stroke-linecap="round"></path><path d="M 331.000,230.469 C 331.228,237.978 331.659,237.963 332.000,245.469" stroke-width="2.869" stroke="black" fill="none" stroke-linecap="round"></path><path d="M 332.000,245.469 C 332.159,248.963 331.711,251.890 332.000,252.469" stroke-width="3.568" stroke="black" fill="none" stroke-linecap="round"></path><path d="M 332.000,252.469 C 332.211,252.890 332.530,249.975 333.000,247.469" stroke-width="4.379" stroke="black" fill="none" stroke-linecap="round"></path><path d="M 333.000,247.469 C 334.030,241.975 333.954,241.960 335.000,236.469" stroke-width="3.639" stroke="black" fill="none" stroke-linecap="round"></path><path d="M 335.000,236.469 C 335.954,231.460 334.933,230.898 337.000,226.469" stroke-width="3.552" stroke="black" fill="none" stroke-linecap="round"></path><path d="M 337.000,226.469 C 338.433,223.398 339.376,223.830 342.000,221.469" stroke-width="4.245" stroke="black" fill="none" stroke-linecap="round"></path><path d="M 342.000,221.469 C 344.376,219.330 345.650,220.169 347.000,217.469" stroke-width="4.831" stroke="black" fill="none" stroke-linecap="round"></path><path d="M 347.000,217.469 C 349.150,213.169 348.259,212.511 349.000,207.469" stroke-width="3.828" stroke="black" fill="none" stroke-linecap="round"></path><path d="M 349.000,207.469 C 350.759,195.511 350.930,195.506 352.000,183.469" stroke-width="2.558" stroke="black" fill="none" stroke-linecap="round"></path><path d="M 352.000,183.469 C 352.930,173.006 353.850,172.881 353.000,162.469" stroke-width="2.528" stroke="black" fill="none" stroke-linecap="round"></path><path d="M 353.000,162.469 C 351.850,148.381 350.788,148.411 348.000,134.469" stroke-width="2.216" stroke="black" fill="none" stroke-linecap="round"></path><path d="M 348.000,134.469 C 345.288,120.911 346.335,120.475 342.000,107.469" stroke-width="2.163" stroke="black" fill="none" stroke-linecap="round"></path><path d="M 342.000,107.469 C 339.335,99.475 337.052,94.843 334.000,92.469" stroke-width="2.529" stroke="black" fill="none" stroke-linecap="round"></path><path d="M 334.000,92.469 C 332.552,91.343 332.648,96.481 333.000,100.469" stroke-width="3.801" stroke="black" fill="none" stroke-linecap="round"></path><path d="M 333.000,100.469 C 334.148,113.481 334.881,113.488 337.000,126.469" stroke-width="2.526" stroke="black" fill="none" stroke-linecap="round"></path><path d="M 337.000,126.469 C 338.881,137.988 338.711,138.026 341.000,149.469" stroke-width="2.354" stroke="black" fill="none" stroke-linecap="round"></path><path d="M 341.000,149.469 C 343.711,163.026 342.804,163.358 347.000,176.469" stroke-width="2.201" stroke="black" fill="none" stroke-linecap="round"></path><path d="M 347.000,176.469 C 350.804,188.358 350.785,188.866 357.000,199.469" stroke-width="2.194" stroke="black" fill="none" stroke-linecap="round"></path><path d="M 357.000,199.469 C 359.285,203.366 360.212,202.944 364.000,205.469" stroke-width="3.078" stroke="black" fill="none" stroke-linecap="round"></path><path d="M 364.000,205.469 C 366.212,206.944 368.741,206.172 369.000,207.469" stroke-width="3.826" stroke="black" fill="none" stroke-linecap="round"></path><path d="M 369.000,207.469 C 369.241,208.672 367.122,209.150 365.000,210.469" stroke-width="4.682" stroke="black" fill="none" stroke-linecap="round"></path><path d="M 365.000,210.469 C 348.622,220.650 348.392,220.295 332.000,230.469" stroke-width="3.070" stroke="black" fill="none" stroke-linecap="round"></path><path d="M 332.000,230.469 C 319.392,238.295 319.763,238.915 307.000,246.469" stroke-width="2.207" stroke="black" fill="none" stroke-linecap="round"></path><path d="M 307.000,246.469 C 295.263,253.415 295.300,253.626 283.000,259.469" stroke-width="2.173" stroke="black" fill="none" stroke-linecap="round"></path><path d="M 283.000,259.469 C 275.300,263.126 275.087,262.773 267.000,265.469" stroke-width="2.580" stroke="black" fill="none" stroke-linecap="round"></path><path d="M 267.000,265.469 C 264.587,266.273 261.514,267.441 262.000,266.469" stroke-width="3.597" stroke="black" fill="none" stroke-linecap="round"></path><path d="M 262.000,266.469 C 263.014,264.441 265.458,262.194 270.000,259.469" stroke-width="3.768" stroke="black" fill="none" stroke-linecap="round"></path><path d="M 270.000,259.469 C 290.458,247.194 290.805,247.596 312.000,236.469" stroke-width="1.735" stroke="black" fill="none" stroke-linecap="round"></path><path d="M 312.000,236.469 C 330.805,226.596 330.497,225.827 350.000,217.469" stroke-width="1.593" stroke="black" fill="none" stroke-linecap="round"></path><path d="M 350.000,217.469 C 379.497,204.827 379.819,205.469 410.000,194.469" stroke-width="1.321" stroke="black" fill="none" stroke-linecap="round"></path><path d="M 410.000,194.469 C 433.319,185.969 433.267,185.679 457.000,178.469" stroke-width="1.356" stroke="black" fill="none" stroke-linecap="round"></path><path d="M 457.000,178.469 C 472.767,173.679 472.897,173.982 489.000,170.469" stroke-width="1.703" stroke="black" fill="none" stroke-linecap="round"></path><path d="M 489.000,170.469 C 500.397,167.982 500.460,168.007 512.000,166.469" stroke-width="2.074" stroke="black" fill="none" stroke-linecap="round"></path></svg>